<svg width="134" height="113" viewBox="0 0 134 113" fill="none" xmlns="http://www.w3.org/2000/svg">
<path d="M28.8049 49C28.8049 58.9411 36.8638 67 46.8049 67L73.8049 67C76.5664 67 78.8049 64.7614 78.8049 62L78.8049 28C78.8049 22.4772 74.3278 18 68.8049 18L33.8049 18C31.0435 18 28.8049 20.2386 28.8049 23L28.8049 49Z" fill="#FFF1DA"/>
<path d="M78.4053 62.6519C76.9725 62.7455 75.535 63.124 74.1822 63.7634C70.6656 65.3752 68.3541 68.1323 69.0196 69.9212C69.6851 71.71 73.0754 71.8526 76.592 70.2408C77.957 69.6341 79.2161 68.777 80.2917 67.7224C80.7942 67.21 80.9751 66.4964 80.7533 65.9029L79.8888 63.579C79.6693 62.9841 79.0871 62.6206 78.4053 62.6519Z" fill="#D5D6DB"/>
<path d="M70.2388 35.7385C69.1999 35.8066 68.1575 36.0812 67.1764 36.5449C64.6272 37.7134 62.9504 39.7125 63.4325 41.0086C63.9146 42.3046 66.3739 42.4079 68.9228 41.2396C69.9126 40.7994 70.8255 40.1774 71.6056 39.4126C71.9695 39.0412 72.1005 38.5242 71.9398 38.0938L71.3138 36.4111C71.155 35.9799 70.7332 35.7159 70.2388 35.7385Z" fill="#D5D6DB"/>
<path d="M57.0727 34.4861C56.8569 34.4061 56.6181 34.4163 56.4031 34.5142L50.7325 37.0878C50.2583 37.3021 50.0245 37.8778 50.2108 38.3739C50.2534 38.4876 50.3164 38.591 50.3962 38.6783L62.5998 52.09L81.5084 43.5081L57.0727 34.4861Z" fill="#029BC5"/>
<path d="M112.91 41.7161L63.2884 68.936L34.8279 76.0391L20.7068 75.7145L19.5657 71.5405L102.145 27.4943C104.607 26.173 107.248 25.7131 109.803 26.1617C110.92 26.3667 112.005 26.7584 113.032 27.3269C113.944 27.8203 114.789 28.4884 115.541 29.3112C116.381 30.2392 118.093 30.8481 118.522 32.3109C118.524 32.3094 119.248 38.6385 112.91 41.7161Z" fill="#E1E6E9"/>
<path d="M66.2574 59.2673L42.0892 95.2795C41.7812 95.794 41.8696 96.4891 42.2863 96.8319C42.5421 97.0423 42.8759 97.0785 43.1734 96.9283L48.7241 94.1322C49.7918 93.594 50.7665 92.8058 51.5881 91.8164L96.4614 43.1405L66.2574 59.2673Z" fill="#029BC5"/>
<path d="M12.6225 59.2749C12.28 59.0651 11.8526 59.0371 11.4754 59.1996L6.73871 61.2396C6.09333 61.5173 5.78001 62.2608 6.03869 62.9006C6.08799 63.0223 6.15607 63.135 6.24084 63.2342L17.8006 76.8101L31.7385 70.9735L12.6225 59.2749Z" fill="#029BC5"/>
<path d="M23.3543 76.8915L15.5917 86.6351C15.4783 86.7747 15.4758 86.9827 15.5861 87.0994C15.6657 87.1835 15.7863 87.1999 15.893 87.1412L20.2419 84.9178C20.2757 84.9006 20.3073 84.8764 20.3346 84.8467L31.415 72.7756L23.3543 76.8915Z" fill="#029BC5"/>
<path d="M111.342 25.7867C110.21 25.3812 109.011 25.1279 107.774 25.0321C106.322 26.6337 105.267 28.5331 104.713 30.5408C104.634 30.9498 104.897 31.2997 105.299 31.3223C105.424 31.3292 105.553 31.3035 105.674 31.2474L114.102 27.2745C113.276 26.6382 112.347 26.1373 111.342 25.7867Z" fill="#029BC5"/>
<path d="M94.3318 33.729L100.3 31.4347L104.218 39.9018L98.2501 42.1961L94.3318 33.729Z" fill="#D5D6DB"/>
<path d="M91.4175 37.6103C90.7024 37.8864 90.3219 38.5725 90.5681 39.1427L90.9669 40.0665C91.2371 40.627 92.0289 40.8419 92.7357 40.5465C93.4084 40.2652 93.767 39.6187 93.5559 39.067L93.157 38.1432C92.911 37.5734 92.1325 37.3348 91.4175 37.6103Z" fill="#3A556A"/>
<path d="M86.9532 40.3827C86.2381 40.6588 85.8575 41.345 86.1037 41.9152L86.5026 42.839C86.7727 43.3994 87.5646 43.6144 88.2714 43.319C88.944 43.0377 89.3026 42.3912 89.0915 41.8394L88.6926 40.9156C88.4463 40.346 87.6679 40.1074 86.9532 40.3827Z" fill="#3A556A"/>
<path d="M82.4871 43.1558C81.7726 43.4325 81.3931 44.1179 81.6391 44.6876L82.038 45.6114C82.3082 46.1718 83.1 46.3868 83.8068 46.0914C84.4794 45.8101 84.838 45.1637 84.6269 44.6119L84.228 43.6881C83.9818 43.1179 83.2025 42.8796 82.4871 43.1558Z" fill="#3A556A"/>
<path d="M78.0227 45.9282C77.3082 46.2049 76.9288 46.8904 77.1748 47.4601L77.5736 48.3839C77.8438 48.9443 78.6356 49.1593 79.3424 48.8639C80.0151 48.5826 80.3737 47.9361 80.1625 47.3844L79.7637 46.4605C79.5172 45.8904 78.7378 45.6522 78.0227 45.9282Z" fill="#3A556A"/>
<path d="M73.56 48.7006C72.8445 48.9771 72.4645 49.6621 72.711 50.2316L73.1107 51.1549C73.3571 51.7242 74.1369 51.9621 74.8524 51.6865C75.568 51.4108 75.9483 50.7259 75.7019 50.1566L75.3022 49.2333C75.0568 48.6637 74.2774 48.425 73.5615 48.7C73.5609 48.7002 73.5606 48.7003 73.56 48.7006Z" fill="#3A556A"/>
<path d="M69.0957 51.473C68.3801 51.7495 68.0002 52.4346 68.2467 53.004L68.6463 53.9274C68.8927 54.4966 69.6725 54.7346 70.3881 54.4589C71.1036 54.1832 71.4839 53.4983 71.2376 52.9291L70.8379 52.0057C70.5924 51.4362 69.813 51.1975 69.0972 51.4724C69.0966 51.4727 69.096 51.4729 69.0957 51.473Z" fill="#3A556A"/>
<path d="M64.631 54.2455C63.9155 54.522 63.5356 55.207 63.782 55.7765L64.1817 56.6999C64.429 57.2688 65.2093 57.5056 65.9242 57.2294C66.6379 56.9535 67.0174 56.2701 66.7725 55.7017L66.3728 54.7783C66.1267 54.2087 65.347 53.9702 64.631 54.2455Z" fill="#3A556A"/>
<path d="M60.1664 57.0179C59.4509 57.2944 59.071 57.9795 59.3174 58.549L59.7171 59.4724C59.9644 60.0413 60.7447 60.2782 61.4596 60.0019C62.1733 59.726 62.5528 59.0425 62.3079 58.4741L61.9082 57.5507C61.6621 56.9812 60.8824 56.7426 60.1664 57.0179Z" fill="#3A556A"/>
<path d="M55.7023 59.7904C54.9868 60.0669 54.6069 60.752 54.8533 61.3214L55.253 62.2448C55.5002 62.8137 56.2806 63.0506 56.9955 62.7743C57.7092 62.4985 58.0887 61.815 57.8438 61.2466L57.4441 60.3232C57.1977 59.7538 56.418 59.5152 55.7023 59.7904Z" fill="#3A556A"/>
<path d="M51.2362 62.5633C50.5207 62.839 50.1404 63.524 50.3868 64.0932L50.3873 64.0944L50.7869 65.0178C51.0342 65.5867 51.8145 65.8236 52.5294 65.5473C53.2431 65.2715 53.6226 64.5879 53.3777 64.0196L52.9781 63.0962C52.7319 62.5266 51.9523 62.288 51.2362 62.5633Z" fill="#3A556A"/>
<path d="M46.7731 65.3353C46.0576 65.611 45.6773 66.2959 45.9236 66.8652L45.9241 66.8664L46.3238 67.7897C46.5711 68.3586 47.3514 68.5955 48.0663 68.3192C48.78 68.0434 49.1596 67.3599 48.9146 66.7915L48.515 65.8682C48.2685 65.2987 47.4888 65.0601 46.7731 65.3353Z" fill="#3A556A"/>
</svg>
