<svg width="679" height="78" viewBox="0 0 679 78" fill="none" xmlns="http://www.w3.org/2000/svg">
<path d="M92 60C92 69.9411 83.9411 78 74 78L47 78C44.2386 78 42 75.7614 42 73L42 39C42 33.4772 46.4772 29 52 29L87 29C89.7614 29 92 31.2386 92 34L92 60Z" fill="#FFF1DA"/>
<path d="M23.527 50.6573L21.6389 49.7534L10.4222 66.338H22.9402L24.1464 65.5515V51.2249L23.527 50.6573Z" fill="#407093"/>
<path d="M21.8095 49.8351L17.5644 47.8027H16.7644L4.76062 65.5514L5.47525 66.3379H10.6483L21.8095 49.8351Z" fill="#365E7D"/>
<path d="M26.4 65.5518H9.84754C9.09559 65.5518 8.48596 66.1613 8.48596 66.9133V68.6387C8.48596 69.3905 9.09545 70 9.84727 70.0002H26.4C27.152 70.0002 27.7616 69.3907 27.7616 68.6387V66.9133C27.7616 66.1613 27.152 65.5518 26.4 65.5518Z" fill="#4A80AA"/>
<path d="M8.76775 68.6387V66.9133C8.76775 66.1614 9.37738 65.5518 10.1293 65.5518H1.36158C0.609627 65.5518 0 66.1612 0 66.9133V68.6387C0 69.3907 0.609627 70.0002 1.36158 70.0002H10.1292C9.37724 70.0002 8.76775 69.3907 8.76775 68.6387Z" fill="#407093"/>
<path d="M21.2397 39.9824C20.7302 41.0335 20.4423 42.212 20.4423 43.4588C20.4423 46.8656 22.5756 49.7719 25.5782 50.9215C26.8673 50.5177 28.0128 49.7891 28.9176 48.8299V47.089L21.2397 39.9824Z" fill="#4A80AA"/>
<path d="M20.5767 43.4864C20.5767 42.2686 20.8583 41.1174 21.357 40.091L18.9027 37.8193H17.9069C16.4009 39.24 15.4595 41.2526 15.4595 43.4863C15.4595 47.7894 18.9477 51.2776 23.2508 51.2776C24.1471 51.2776 25.0067 51.1238 25.8078 50.845C22.7628 49.7857 20.5767 46.8922 20.5767 43.4864Z" fill="#407093"/>
<path d="M65.812 0.924695C64.5791 -0.308232 62.5801 -0.308232 61.3473 0.924695L58.3345 3.93756V4.31941L62.0949 8.23954L62.7991 8.40223L65.8119 5.38937C67.0449 4.15658 67.0449 2.15762 65.812 0.924695Z" fill="#FFD086"/>
<path d="M66.6449 2.41492C66.5134 1.86915 66.238 1.35085 65.812 0.924695C64.5791 -0.308232 62.5801 -0.308232 61.3473 0.924695L58.3345 3.93756V4.31941L60.3282 6.3978C61.5169 5.16091 62.697 3.94029 63.3039 3.3334C64.3156 2.32182 65.7933 2.31403 66.6449 2.41492Z" fill="#FFC365"/>
<path d="M55.4975 8.95002C55.4629 8.95002 55.4279 8.94824 55.3927 8.94482L20.5763 5.51784C19.9957 5.46069 19.5714 4.94376 19.6286 4.36312C19.6857 3.78247 20.2029 3.35851 20.7833 3.41525L55.5997 6.84209C56.1802 6.89924 56.6046 7.41617 56.5475 7.99682C56.4937 8.54246 56.0342 8.95002 55.4975 8.95002Z" fill="#365E7D"/>
<path d="M30.6459 15.4682C30.1774 15.4682 29.7493 15.1541 29.6249 14.6796C29.4769 14.1153 29.8144 13.5378 30.3787 13.3897L55.2287 6.87166C55.793 6.72387 56.3706 7.06115 56.5185 7.62552C56.6666 8.18976 56.3292 8.76726 55.7648 8.91532L30.9147 15.4334C30.8248 15.4569 30.7345 15.4682 30.6459 15.4682Z" fill="#407093"/>
<path d="M62.2465 47.1359C61.7093 47.1359 61.2498 46.7279 61.1964 46.1822L57.7907 11.3444C57.734 10.7639 58.1586 10.2471 58.7393 10.1902C59.3199 10.1361 59.8366 10.5583 59.8933 11.1389L63.299 45.9767C63.3557 46.5572 62.9311 47.074 62.3504 47.1308C62.3156 47.1341 62.2808 47.1359 62.2465 47.1359Z" fill="#365E7D"/>
<path d="M52.2252 37.2477C52.1357 37.2477 52.0446 37.2361 51.9538 37.2122C51.3899 37.0626 51.054 36.4843 51.2035 35.9203L57.8176 10.9743C57.967 10.4102 58.5452 10.0748 59.1093 10.2239C59.6732 10.3734 60.0092 10.9517 59.8596 11.5157L53.2456 36.4618C53.1202 36.9351 52.6927 37.2477 52.2252 37.2477Z" fill="#407093"/>
<path d="M55.3069 6.96436L58.3274 3.94381L62.7914 8.40788L59.7709 11.4284L55.3069 6.96436Z" fill="#FFC365"/>
<path d="M57.6009 9.24573C58.3269 8.48557 59.4605 7.29995 60.557 6.15999L58.3347 3.9375L55.3136 6.95843L57.6009 9.24573Z" fill="#FFA90F"/>
<path d="M60.4509 13.1521C60.1806 13.1521 59.9102 13.0489 59.704 12.8427L53.8944 7.0333C53.4818 6.62068 53.4818 5.95199 53.8944 5.53924C54.3069 5.12689 54.9757 5.12689 55.3883 5.53924L61.1979 11.3487C61.6105 11.7613 61.6105 12.43 61.1979 12.8427C60.9916 13.049 60.7213 13.1521 60.4509 13.1521Z" fill="#4A80AA"/>
<path d="M61.1327 49.0375L25.7619 13.3599C21.0724 23.9465 20.2581 35.3112 23.7688 45.1113C33.4643 53.8572 47.9476 55.2002 61.2809 49.7025L61.1327 49.0375Z" fill="#B5DCFF"/>
<path d="M25.9502 13.5502L17.8463 5.37598L17.0341 5.45609C11.3245 19.3033 12.9917 34.392 22.6683 44.0686C23.2544 44.6548 23.8609 45.2109 24.4853 45.7385C20.4062 35.95 21.0691 24.3079 25.9502 13.5502Z" fill="#8BCAFF"/>
<path d="M64.365 46.5015L28.4914 10.6279C28.1384 10.6823 27.7985 10.8429 27.5267 11.1146L25.9664 12.6752C25.6313 13.0102 25.4646 13.4479 25.4598 13.8872L61.2196 49.6468C61.7513 50.1785 62.6133 50.1785 63.145 49.6468L64.3651 48.4269C64.8967 47.8953 64.8967 47.0332 64.365 46.5015Z" fill="#DBEDFF"/>
<path d="M26.0203 12.7021L27.5481 11.1743C27.8295 10.8929 28.1848 10.7318 28.5515 10.6882L20.2352 2.37192C19.7035 1.84022 18.8415 1.84022 18.3096 2.37192L17.0896 3.59199C16.5579 4.12369 16.5579 4.9857 17.0896 5.5174L25.5228 13.9506C25.5117 13.5 25.6764 13.0459 26.0203 12.7021Z" fill="#B5DCFF"/>
<path d="M635.527 50.6573L633.639 49.7534L622.422 66.338H634.94L636.147 65.5515V51.2249L635.527 50.6573Z" fill="#407093"/>
<path d="M633.81 49.8351L629.565 47.8027H628.764L616.761 65.5514L617.475 66.3379H622.648L633.81 49.8351Z" fill="#365E7D"/>
<path d="M638.4 65.5518H621.847C621.095 65.5518 620.486 66.1613 620.486 66.9133V68.6387C620.486 69.3905 621.095 70 621.847 70.0002H638.4C639.152 70.0002 639.761 69.3907 639.761 68.6387V66.9133C639.761 66.1613 639.152 65.5518 638.4 65.5518Z" fill="#4A80AA"/>
<path d="M620.768 68.6387V66.9133C620.768 66.1614 621.377 65.5518 622.129 65.5518H613.362C612.61 65.5518 612 66.1612 612 66.9133V68.6387C612 69.3907 612.61 70.0002 613.362 70.0002H622.129C621.377 70.0002 620.768 69.3907 620.768 68.6387Z" fill="#407093"/>
<path d="M633.24 39.9824C632.73 41.0335 632.442 42.212 632.442 43.4588C632.442 46.8656 634.576 49.7719 637.578 50.9215C638.867 50.5177 640.013 49.7891 640.918 48.8299V47.089L633.24 39.9824Z" fill="#4A80AA"/>
<path d="M632.577 43.4864C632.577 42.2686 632.858 41.1174 633.357 40.091L630.903 37.8193H629.907C628.401 39.24 627.459 41.2526 627.459 43.4863C627.459 47.7894 630.948 51.2776 635.251 51.2776C636.147 51.2776 637.007 51.1238 637.808 50.845C634.763 49.7857 632.577 46.8922 632.577 43.4864Z" fill="#407093"/>
<path d="M677.812 0.924695C676.579 -0.308232 674.58 -0.308232 673.347 0.924695L670.334 3.93756V4.31941L674.095 8.23954L674.799 8.40223L677.812 5.38937C679.045 4.15658 679.045 2.15762 677.812 0.924695Z" fill="#FFD086"/>
<path d="M678.645 2.41492C678.513 1.86915 678.238 1.35085 677.812 0.924695C676.579 -0.308232 674.58 -0.308232 673.347 0.924695L670.334 3.93756V4.31941L672.328 6.3978C673.517 5.16091 674.697 3.94029 675.304 3.3334C676.316 2.32182 677.793 2.31403 678.645 2.41492Z" fill="#FFC365"/>
<path d="M667.498 8.95002C667.463 8.95002 667.428 8.94824 667.393 8.94482L632.576 5.51784C631.996 5.46069 631.572 4.94376 631.629 4.36312C631.686 3.78247 632.203 3.35851 632.783 3.41525L667.6 6.84209C668.18 6.89924 668.605 7.41617 668.548 7.99682C668.494 8.54246 668.034 8.95002 667.498 8.95002Z" fill="#365E7D"/>
<path d="M642.646 15.4682C642.177 15.4682 641.749 15.1541 641.625 14.6796C641.477 14.1153 641.814 13.5378 642.379 13.3897L667.229 6.87166C667.793 6.72387 668.371 7.06115 668.519 7.62552C668.667 8.18976 668.329 8.76726 667.765 8.91532L642.915 15.4334C642.825 15.4569 642.735 15.4682 642.646 15.4682Z" fill="#407093"/>
<path d="M674.247 47.1359C673.709 47.1359 673.25 46.7279 673.196 46.1822L669.791 11.3444C669.734 10.7639 670.159 10.2471 670.739 10.1902C671.32 10.1361 671.837 10.5583 671.893 11.1389L675.299 45.9767C675.356 46.5572 674.931 47.074 674.35 47.1308C674.316 47.1341 674.281 47.1359 674.247 47.1359Z" fill="#365E7D"/>
<path d="M664.225 37.2477C664.136 37.2477 664.045 37.2361 663.954 37.2122C663.39 37.0626 663.054 36.4843 663.204 35.9203L669.818 10.9743C669.967 10.4102 670.545 10.0748 671.109 10.2239C671.673 10.3734 672.009 10.9517 671.86 11.5157L665.246 36.4618C665.12 36.9351 664.693 37.2477 664.225 37.2477Z" fill="#407093"/>
<path d="M667.307 6.96436L670.327 3.94381L674.791 8.40788L671.771 11.4284L667.307 6.96436Z" fill="#FFC365"/>
<path d="M669.601 9.24573C670.327 8.48557 671.46 7.29995 672.557 6.15999L670.335 3.9375L667.313 6.95843L669.601 9.24573Z" fill="#FFA90F"/>
<path d="M672.451 13.1521C672.181 13.1521 671.91 13.0489 671.704 12.8427L665.894 7.0333C665.482 6.62068 665.482 5.95199 665.894 5.53924C666.307 5.12689 666.976 5.12689 667.388 5.53924L673.198 11.3487C673.611 11.7613 673.611 12.43 673.198 12.8427C672.992 13.049 672.721 13.1521 672.451 13.1521Z" fill="#4A80AA"/>
<path d="M673.133 49.0375L637.762 13.3599C633.072 23.9465 632.258 35.3112 635.769 45.1113C645.464 53.8572 659.947 55.2002 673.281 49.7025L673.133 49.0375Z" fill="#B5DCFF"/>
<path d="M637.95 13.5502L629.846 5.37598L629.034 5.45609C623.324 19.3033 624.992 34.392 634.668 44.0686C635.254 44.6548 635.861 45.2109 636.485 45.7385C632.406 35.95 633.069 24.3079 637.95 13.5502Z" fill="#8BCAFF"/>
<path d="M676.365 46.5015L640.492 10.6279C640.139 10.6823 639.799 10.8429 639.527 11.1146L637.967 12.6752C637.631 13.0102 637.465 13.4479 637.46 13.8872L673.22 49.6468C673.751 50.1785 674.613 50.1785 675.145 49.6468L676.365 48.4269C676.897 47.8953 676.897 47.0332 676.365 46.5015Z" fill="#DBEDFF"/>
<path d="M638.02 12.7021L639.548 11.1743C639.83 10.8929 640.185 10.7318 640.552 10.6882L632.235 2.37192C631.704 1.84022 630.842 1.84022 630.31 2.37192L629.09 3.59199C628.558 4.12369 628.558 4.9857 629.09 5.5174L637.523 13.9506C637.512 13.5 637.677 13.0459 638.02 12.7021Z" fill="#B5DCFF"/>
</svg>
