<svg width="1185" height="354" viewBox="0 0 1185 354" fill="none" xmlns="http://www.w3.org/2000/svg">
<path opacity="0.2" d="M1185 20C1185 8.9543 1176.05 0 1165 0H211.017C139.772 0 82.0167 57.7553 82.0167 129V334C82.0167 345.046 90.9711 354 102.017 354H1165C1176.05 354 1185 345.046 1185 334V20Z" fill="#FA7A04" fill-opacity="0.37"/>
<g opacity="0.1">
<mask id="mask0_9_339" style="mask-type:alpha" maskUnits="userSpaceOnUse" x="936" y="0" width="249" height="306">
<path d="M936.622 0.5H1161C1173.98 0.5 1184.5 11.0213 1184.5 24V305.246H986.122C958.783 305.246 936.622 283.084 936.622 255.746V0.5Z" fill="url(#paint0_linear_9_339)" stroke="#FA7A04"/>
</mask>
<g mask="url(#mask0_9_339)">
<path d="M1247.96 155.099C1247.96 199.125 1209.27 234.883 1161.45 234.883C1113.63 234.883 1074.93 199.125 1074.93 155.099C1074.93 111.073 1113.63 75.3154 1161.45 75.3154C1209.27 75.3154 1247.96 111.073 1247.96 155.099Z" stroke="#FA7A04"/>
<path d="M1251.4 146.648C1251.4 195.924 1208.09 235.938 1154.58 235.938C1101.06 235.938 1057.76 195.924 1057.76 146.648C1057.76 97.3709 1101.06 57.3569 1154.58 57.3569C1208.09 57.3569 1251.4 97.3709 1251.4 146.648Z" stroke="#FA7A04"/>
<path d="M1254.83 139.782C1254.83 193.726 1207.42 237.523 1148.85 237.523C1090.28 237.523 1042.87 193.726 1042.87 139.782C1042.87 85.8376 1090.28 42.04 1148.85 42.04C1207.42 42.04 1254.83 85.8376 1254.83 139.782Z" stroke="#FA7A04"/>
<path d="M1257.12 129.746C1257.12 187.774 1206.12 234.882 1143.13 234.882C1080.13 234.882 1029.13 187.774 1029.13 129.746C1029.13 71.7181 1080.13 24.6099 1143.13 24.6099C1206.12 24.6099 1257.12 71.7181 1257.12 129.746Z" stroke="#FA7A04"/>
<path d="M1259.41 119.975C1259.41 181.941 1204.95 232.242 1137.69 232.242C1070.42 232.242 1015.96 181.941 1015.96 119.975C1015.96 58.0091 1070.42 7.7085 1137.69 7.7085C1204.95 7.7085 1259.41 58.0091 1259.41 119.975Z" stroke="#FA7A04"/>
<path d="M1262.27 108.883C1262.27 176.975 1202.43 232.242 1128.53 232.242C1054.62 232.242 994.783 176.975 994.783 108.883C994.783 40.7915 1054.62 -14.4751 1128.53 -14.4751C1202.43 -14.4751 1262.27 40.7915 1262.27 108.883Z" stroke="#FA7A04"/>
</g>
</g>
<g opacity="0.1">
<mask id="mask1_9_339" style="mask-type:alpha" maskUnits="userSpaceOnUse" x="0" y="40" width="453" height="314">
<rect x="452.006" y="40.5098" width="312.99" height="451.506" transform="rotate(90 452.006 40.5098)" fill="url(#paint1_linear_9_339)" stroke="#FA7A04"/>
</mask>
<g mask="url(#mask1_9_339)">
<path d="M222.958 434.755C157.574 434.755 104.638 385.791 104.638 325.473C104.638 265.155 157.574 216.191 222.958 216.191C288.343 216.191 341.278 265.155 341.278 325.473C341.278 385.791 288.343 434.755 222.958 434.755Z" stroke="#FA7A04"/>
<path d="M235.466 439.088C162.311 439.088 103.075 384.304 103.075 316.806C103.075 249.308 162.311 194.524 235.466 194.524C308.621 194.524 367.857 249.308 367.857 316.806C367.857 384.304 308.621 439.088 235.466 439.088Z" stroke="#FA7A04"/>
<path d="M245.628 443.422C165.565 443.422 100.73 383.464 100.73 309.584C100.73 235.704 165.565 175.746 245.628 175.746C325.691 175.746 390.526 235.704 390.526 309.584C390.526 383.464 325.691 443.422 245.628 443.422Z" stroke="#FA7A04"/>
<path d="M260.481 446.311C174.374 446.311 104.639 381.826 104.639 302.362C104.639 222.897 174.374 158.412 260.481 158.412C346.588 158.412 416.323 222.897 416.323 302.362C416.323 381.826 346.588 446.311 260.481 446.311Z" stroke="#FA7A04"/>
<path d="M274.942 449.199C183.007 449.199 108.547 380.349 108.547 295.5C108.547 210.65 183.007 141.8 274.942 141.8C366.878 141.8 441.338 210.65 441.338 295.5C441.338 380.349 366.878 449.199 274.942 449.199Z" stroke="#FA7A04"/>
<path d="M291.358 452.811C190.357 452.811 108.547 377.17 108.547 283.944C108.547 190.718 190.357 115.077 291.358 115.077C392.36 115.077 474.169 190.718 474.169 283.944C474.169 377.17 392.36 452.811 291.358 452.811Z" stroke="#FA7A04"/>
</g>
</g>
<defs>
<linearGradient id="paint0_linear_9_339" x1="1112.64" y1="8.57805" x2="961.677" y2="318.205" gradientUnits="userSpaceOnUse">
<stop stop-color="#747DEF"/>
<stop offset="1" stop-color="#5E3BE1"/>
</linearGradient>
<linearGradient id="paint1_linear_9_339" x1="675.2" y1="52.7053" x2="430.765" y2="480.081" gradientUnits="userSpaceOnUse">
<stop stop-color="#747DEF"/>
<stop offset="1" stop-color="#5E3BE1"/>
</linearGradient>
</defs>
</svg>
