<svg width="70" height="70" viewBox="0 0 70 70" fill="none" xmlns="http://www.w3.org/2000/svg">
<circle cx="35" cy="35" r="35" fill="url(#paint0_linear_9_369)"/>
<path d="M52.6105 23.9904C53.3018 25.1878 53.2092 26.6136 52.3677 27.711L33.8939 51.8182C33.1321 52.8123 31.8776 53.3191 30.5948 53.0729C29.3387 52.8313 28.3427 51.9156 27.997 50.6841L25.2635 40.9555L24.9789 39.9435L24.2449 39.191L17.1864 31.9595C16.2927 31.0444 15.9977 29.724 16.4166 28.5154C16.8311 27.3206 17.8708 26.4536 19.1527 26.2856L49.267 22.3404C50.6381 22.1604 51.9192 22.793 52.6105 23.9904Z" fill="white"/>
<path d="M25.2636 40.9552L27.997 50.6839C28.3427 51.9154 29.3386 52.831 30.5948 53.0727C31.8776 53.319 33.1321 52.8121 33.8939 51.818L52.3677 27.7109C53.2092 26.6134 53.3018 25.1876 52.6105 23.9902L24.9789 39.9433L25.2636 40.9552Z" fill="white"/>
<defs>
<linearGradient id="paint0_linear_9_369" x1="49.6467" y1="1.96393" x2="19.564" y2="77.7643" gradientUnits="userSpaceOnUse">
<stop stop-color="#FA7A04"/>
<stop offset="0.880208" stop-color="#E1DA3B"/>
</linearGradient>
</defs>
</svg>
