<svg width="31" height="30" viewBox="0 0 31 30" fill="none" xmlns="http://www.w3.org/2000/svg">
<g clip-path="url(#clip0_9_612)">
<path d="M22.3578 -1.18464e-06C20.6562 0.114842 18.8351 1.12734 17.7078 2.49375C16.721 3.69609 15.8937 5.46094 16.2078 7.29375C15.9265 7.20703 15.671 7.19766 15.364 7.0875C14.5273 6.78984 13.571 6.46875 12.3828 6.46875C10.0226 6.46875 7.6062 7.87266 6.08276 10.2187C3.86557 13.6266 4.31089 19.6242 7.67651 24.75C8.26948 25.65 8.96089 26.632 9.81401 27.4125C10.6671 28.193 11.6984 28.7883 12.9078 28.8C13.9414 28.8117 14.6609 28.4672 15.3078 28.1812C15.9546 27.8953 16.557 27.6422 17.689 27.6375C17.696 27.6375 17.7007 27.6375 17.7078 27.6375C18.8351 27.6281 19.4187 27.8766 20.0515 28.1625C20.6843 28.4484 21.3968 28.8094 22.4328 28.8C23.6656 28.7906 24.7132 28.1156 25.5828 27.2812C26.4523 26.4469 27.1671 25.4227 27.7578 24.525C28.6039 23.2359 28.9437 22.5328 29.5953 21.0938C29.6632 20.9437 29.6656 20.7703 29.5999 20.618C29.5367 20.4656 29.4124 20.3461 29.2578 20.2875C27.1249 19.4812 25.9085 17.5945 25.7328 15.6C25.557 13.6055 26.4007 11.5523 28.5265 10.3875C28.6835 10.3031 28.7937 10.1555 28.8312 9.98203C28.8664 9.80859 28.8242 9.62578 28.714 9.4875C27.1882 7.59141 25.0414 6.46875 22.939 6.46875C21.5984 6.46875 20.614 6.78516 19.8078 7.0875C19.6742 7.13906 19.5757 7.13437 19.4515 7.18125C20.2695 6.75 20.9914 6.15234 21.5328 5.45625C22.5171 4.19297 23.2765 2.39531 22.9953 0.506249C22.9484 0.196874 22.6695 -0.0234387 22.3578 -1.18464e-06ZM21.7203 1.425C21.6804 2.63672 21.2656 3.82266 20.5765 4.70625C19.8546 5.63437 18.6406 6.27656 17.464 6.46875C17.4851 5.30391 17.9445 4.09687 18.6453 3.24375C19.3812 2.35312 20.5999 1.71094 21.7203 1.425ZM12.3828 7.66875C12.9078 7.66875 14.1265 7.91953 14.9515 8.2125C15.7765 8.50547 16.646 8.85 17.6703 8.85C18.671 8.85 19.4632 8.50312 20.239 8.2125C21.0148 7.92187 21.7882 7.66875 22.939 7.66875C24.4414 7.66875 26.0656 8.44922 27.3453 9.80625C25.2968 11.2523 24.3382 13.507 24.5328 15.6937C24.7273 17.9039 26.0585 20.0016 28.2453 21.0938C28.2421 21.1006 28.239 21.1074 28.2359 21.1142C27.7677 22.134 27.4555 22.8141 26.764 23.8687C26.1898 24.743 25.5078 25.6992 24.7578 26.4187C24.0078 27.1383 23.2132 27.593 22.414 27.6C21.6429 27.607 21.2046 27.3773 20.539 27.075C19.8734 26.7727 19.0132 26.4258 17.689 26.4375C16.3671 26.4445 15.4953 26.7773 14.8203 27.075C14.1453 27.3727 13.7023 27.607 12.9265 27.6C12.1062 27.593 11.3445 27.1945 10.6203 26.5312C9.89604 25.868 9.24214 24.9633 8.67026 24.0938C5.52026 19.2937 5.26714 13.6547 7.07651 10.875C8.40307 8.83359 11.8578 7.66875 12.3828 7.66875Z" fill="black"/>
<path d="M12.3828 7.66875C12.9078 7.66875 14.1265 7.91953 14.9515 8.2125C15.7765 8.50547 16.646 8.85 17.6703 8.85C18.671 8.85 19.4632 8.50312 20.239 8.2125C21.0148 7.92187 21.7882 7.66875 22.939 7.66875C24.4414 7.66875 26.0656 8.44922 27.3453 9.80625C25.2968 11.2523 24.3382 13.507 24.5328 15.6937C24.7273 17.9039 26.0585 20.0016 28.2453 21.0938L28.2359 21.1142C27.7677 22.134 27.4555 22.8141 26.764 23.8687C26.1898 24.743 25.5078 25.6992 24.7578 26.4187C24.0078 27.1383 23.2132 27.593 22.414 27.6C21.6429 27.607 21.2046 27.3773 20.539 27.075C19.8734 26.7727 19.0132 26.4258 17.689 26.4375C16.3671 26.4445 15.4953 26.7773 14.8203 27.075C14.1453 27.3727 13.7023 27.607 12.9265 27.6C12.1062 27.593 11.3445 27.1945 10.6203 26.5312C9.89604 25.868 9.24214 24.9633 8.67026 24.0938C5.52026 19.2937 5.26714 13.6547 7.07651 10.875C8.40307 8.83359 11.8578 7.66875 12.3828 7.66875Z" fill="black"/>
<path d="M21.7203 1.425C21.6804 2.63672 21.2656 3.82266 20.5765 4.70625C19.8546 5.63437 18.6406 6.27656 17.464 6.46875C17.4851 5.30391 17.9445 4.09687 18.6453 3.24375C19.3812 2.35312 20.5999 1.71094 21.7203 1.425Z" fill="black"/>
</g>
<defs>
<clipPath id="clip0_9_612">
<rect width="30" height="30" fill="white" transform="translate(0.5)"/>
</clipPath>
</defs>
</svg>
