<svg width="522" height="159" viewBox="0 0 522 159" fill="none" xmlns="http://www.w3.org/2000/svg">
<path d="M475.292 109.558C474.08 109.647 472.865 110.021 471.723 110.657C468.753 112.261 466.806 115.017 467.374 116.814C467.942 118.61 470.809 118.765 473.779 117.162C474.932 116.558 475.994 115.704 476.901 114.65C477.325 114.138 477.476 113.423 477.286 112.827L476.549 110.494C476.362 109.896 475.868 109.53 475.292 109.558Z" fill="#D5D6DB"/>
<path d="M468.387 82.6446C467.508 82.709 466.627 82.9806 465.799 83.442C463.646 84.6044 462.233 86.603 462.645 87.9045C463.056 89.2059 465.136 89.3185 467.289 88.1562C468.125 87.7184 468.895 87.0981 469.553 86.334C469.86 85.9628 469.969 85.4449 469.832 85.0127L469.298 83.323C469.162 82.89 468.805 82.6238 468.387 82.6446Z" fill="#D5D6DB"/>
<path d="M457.246 81.3457C457.064 81.2648 456.862 81.2741 456.68 81.3715L451.893 83.9304C451.493 84.1435 451.297 84.7196 451.455 85.2176C451.492 85.3317 451.545 85.4356 451.613 85.5233L461.968 99.0112L477.931 90.4784L457.246 81.3457Z" fill="#029BC5"/>
<path d="M504.5 88.7193L462.55 115.884L438.465 122.916L426.505 122.538L425.527 118.34L495.344 74.3914C497.425 73.0729 499.661 72.6207 501.826 73.0807C502.773 73.2908 503.693 73.6882 504.564 74.2632C505.337 74.7623 506.055 75.4366 506.695 76.266C507.408 77.2014 508.86 77.8195 509.227 79.2906C509.229 79.2892 509.86 85.6506 504.5 88.7193Z" fill="#E1E6E9"/>
<path d="M464.997 106.121L444.643 142.177C444.383 142.692 444.46 143.39 444.814 143.735C445.031 143.947 445.313 143.985 445.565 143.835L450.255 141.049C451.157 140.513 451.98 139.726 452.672 138.736L490.515 90.046L464.997 106.121Z" fill="#029BC5"/>
<path d="M419.64 106.146C419.35 105.935 418.989 105.905 418.67 106.066L414.673 108.093C414.129 108.368 413.866 109.112 414.086 109.754C414.128 109.876 414.186 109.989 414.258 110.089L424.064 123.73L435.826 117.935L419.64 106.146Z" fill="#029BC5"/>
<path d="M428.724 123.784L422.18 133.538C422.084 133.678 422.083 133.887 422.176 134.004C422.244 134.089 422.346 134.106 422.436 134.047L426.111 131.831C426.14 131.814 426.167 131.79 426.19 131.76L435.536 119.681L428.724 123.784Z" fill="#029BC5"/>
<path d="M503.167 72.6974C502.208 72.2865 501.193 72.028 500.146 71.9273C498.922 73.5286 498.035 75.4301 497.572 77.4421C497.506 77.8521 497.729 78.204 498.069 78.2283C498.175 78.2356 498.284 78.2103 498.386 78.1544L505.505 74.2C504.805 73.5586 504.018 73.0527 503.167 72.6974Z" fill="#029BC5"/>
<path d="M488.78 80.6146L493.813 78.3405L497.144 86.8278L492.112 89.1019L488.78 80.6146Z" fill="#D5D6DB"/>
<path d="M486.311 84.5118C485.708 84.7855 485.388 85.471 485.598 86.0429L485.937 86.9694C486.167 87.5315 486.836 87.7497 487.432 87.4567C488 87.1775 488.301 86.5316 488.121 85.9783L487.781 85.0519C487.572 84.4805 486.914 84.2386 486.311 84.5118Z" fill="#3A556A"/>
<path d="M482.534 87.2842C481.931 87.558 481.611 88.2435 481.821 88.8154L482.16 89.7419C482.39 90.304 483.059 90.5222 483.656 90.2291C484.223 89.95 484.524 89.3041 484.344 88.7508L484.004 87.8243C483.795 87.2531 483.137 87.0112 482.534 87.2842Z" fill="#3A556A"/>
<path d="M478.755 90.0574C478.152 90.3317 477.834 91.0166 478.043 91.5879L478.383 92.5144C478.613 93.0765 479.282 93.2947 479.878 93.0017C480.445 92.7225 480.746 92.0766 480.566 91.5234L480.227 90.5969C480.017 90.0251 479.358 89.7836 478.755 90.0574Z" fill="#3A556A"/>
<path d="M474.979 92.8297C474.376 93.1041 474.058 93.7889 474.267 94.3603L474.607 95.2868C474.836 95.8489 475.506 96.0671 476.102 95.7741C476.669 95.4949 476.97 94.849 476.79 94.2957L476.451 93.3693C476.241 92.7975 475.582 92.556 474.979 92.8297Z" fill="#3A556A"/>
<path d="M471.203 95.6018C470.599 95.876 470.28 96.5604 470.49 97.1315L470.83 98.0575C471.04 98.6284 471.699 98.8696 472.303 98.5962C472.906 98.3229 473.226 97.6386 473.016 97.0677L472.676 96.1417C472.467 95.5705 471.808 95.3286 471.204 95.6012C471.204 95.6014 471.203 95.6016 471.203 95.6018Z" fill="#3A556A"/>
<path d="M467.427 98.3741C466.823 98.6483 466.504 99.3327 466.714 99.9038L467.054 100.83C467.264 101.401 467.923 101.642 468.527 101.369C469.13 101.095 469.45 100.411 469.24 99.8401L468.9 98.9141C468.691 98.3429 468.032 98.101 467.428 98.3736C467.428 98.3738 467.427 98.374 467.427 98.3741Z" fill="#3A556A"/>
<path d="M463.649 101.147C463.046 101.421 462.727 102.105 462.937 102.677L463.277 103.603C463.487 104.173 464.147 104.413 464.75 104.139C465.352 103.866 465.67 103.183 465.462 102.613L465.122 101.687C464.912 101.116 464.253 100.874 463.649 101.147Z" fill="#3A556A"/>
<path d="M459.872 103.919C459.269 104.193 458.95 104.878 459.159 105.449L459.5 106.375C459.71 106.946 460.37 107.186 460.973 106.912C461.575 106.638 461.893 105.955 461.685 105.385L461.345 104.459C461.135 103.888 460.476 103.646 459.872 103.919Z" fill="#3A556A"/>
<path d="M456.095 106.692C455.492 106.966 455.173 107.65 455.383 108.221L455.723 109.147C455.933 109.718 456.593 109.958 457.196 109.684C457.798 109.411 458.116 108.728 457.908 108.158L457.568 107.232C457.358 106.661 456.699 106.419 456.095 106.692Z" fill="#3A556A"/>
<path d="M452.318 109.465C451.714 109.738 451.395 110.423 451.605 110.993L451.605 110.995L451.945 111.921C452.156 112.491 452.815 112.731 453.418 112.457C454.02 112.184 454.339 111.501 454.13 110.931L453.79 110.005C453.581 109.434 452.921 109.192 452.318 109.465Z" fill="#3A556A"/>
<path d="M448.541 112.237C447.938 112.51 447.619 113.194 447.828 113.765L447.829 113.766L448.169 114.692C448.379 115.263 449.039 115.503 449.642 115.229C450.244 114.956 450.563 114.273 450.354 113.703L450.014 112.777C449.804 112.206 449.145 111.964 448.541 112.237Z" fill="#3A556A"/>
<path d="M65.8282 62.5584C64.6167 62.647 63.4021 63.0213 62.2597 63.6575C59.29 65.2609 57.3427 68.0173 57.9105 69.8135C58.4783 71.6098 61.346 71.7652 64.3156 70.1618C65.4684 69.5585 66.5309 68.7035 67.4376 67.6499C67.8612 67.1379 68.0122 66.423 67.823 65.827L67.0854 63.4935C66.8982 62.8961 66.4048 62.5295 65.8282 62.5584Z" fill="#D5D6DB"/>
<path d="M58.9225 35.6448C58.044 35.7093 57.1632 35.9808 56.3348 36.4422C54.182 37.6046 52.7694 39.6032 53.1807 40.9047C53.5921 42.2062 55.6723 42.3187 57.8248 41.1565C58.6606 40.7186 59.431 40.0983 60.0886 39.3342C60.3954 38.963 60.5047 38.4451 60.3676 38.0129L59.8335 36.3232C59.698 35.8902 59.3406 35.624 58.9225 35.6448Z" fill="#D5D6DB"/>
<path d="M47.7822 34.3459C47.5995 34.2649 47.3977 34.2742 47.2161 34.3716L42.4289 36.9305C42.0285 37.1436 41.8325 37.7197 41.9914 38.2177C42.0277 38.3318 42.0812 38.4357 42.149 38.5235L52.5039 52.0114L68.4669 43.4785L47.7822 34.3459Z" fill="#029BC5"/>
<path d="M95.0361 41.7194L53.0856 68.8843L29.0013 75.916L17.0407 75.5381L16.0627 71.3403L85.8797 27.3915C87.9611 26.0731 90.1971 25.6208 92.3616 26.0809C93.3088 26.2909 94.2287 26.6884 95.1001 27.2633C95.8735 27.7624 96.5908 28.4367 97.2306 29.2662C97.9439 30.2016 99.3961 30.8197 99.7632 32.2908C99.7649 32.2893 100.396 38.6507 95.0361 41.7194Z" fill="#E1E6E9"/>
<path d="M55.5329 59.1211L35.1786 95.1767C34.9194 95.692 34.9961 96.3899 35.3497 96.7355C35.5667 96.9476 35.8494 96.9851 36.1008 96.8355L40.7906 94.0495C41.6927 93.5133 42.5155 92.7258 43.2081 91.7357L81.0504 43.0461L55.5329 59.1211Z" fill="#029BC5"/>
<path d="M10.1758 59.1462C9.88573 58.9347 9.52453 58.9052 9.20619 59.0665L5.20921 61.0928C4.66461 61.3685 4.40191 62.1122 4.62226 62.7541C4.66427 62.8761 4.7221 62.9892 4.79401 63.089L14.5998 76.7303L26.3616 70.9347L10.1758 59.1462Z" fill="#029BC5"/>
<path d="M19.2597 76.7843L12.7156 86.5382C12.62 86.678 12.6185 86.8868 12.7122 87.0044C12.7798 87.0891 12.8819 87.1061 12.9721 87.0475L16.6472 84.8312C16.6758 84.814 16.7025 84.7898 16.7255 84.7602L26.0716 72.6815L19.2597 76.7843Z" fill="#029BC5"/>
<path d="M93.7024 25.6975C92.7436 25.2866 91.7287 25.0281 90.6817 24.9274C89.4581 26.5287 88.5707 28.4302 88.1078 30.4423C88.0424 30.8522 88.265 31.2042 88.6052 31.2284C88.711 31.2358 88.8201 31.2104 88.9223 31.1546L96.0409 27.2001C95.3411 26.5587 94.5538 26.0528 93.7024 25.6975Z" fill="#029BC5"/>
<path d="M79.3149 33.6147L84.3475 31.3406L87.679 39.8279L82.6465 42.1021L79.3149 33.6147Z" fill="#D5D6DB"/>
<path d="M76.8459 37.5118C76.2427 37.7855 75.9233 38.471 76.1328 39.0429L76.4723 39.9694C76.7021 40.5315 77.3715 40.7497 77.9675 40.4567C78.5348 40.1775 78.8358 39.5316 78.656 38.9783L78.3165 38.0519C78.1071 37.4805 77.449 37.2386 76.8459 37.5118Z" fill="#3A556A"/>
<path d="M73.069 40.2842C72.4659 40.558 72.1464 41.2435 72.356 41.8154L72.6955 42.7419C72.9252 43.304 73.5946 43.5222 74.1907 43.2291C74.758 42.95 75.059 42.3041 74.8791 41.7508L74.5396 40.8243C74.33 40.2531 73.6718 40.0112 73.069 40.2842Z" fill="#3A556A"/>
<path d="M69.2902 43.0574C68.6875 43.3317 68.369 44.0166 68.5784 44.5879L68.9179 45.5144C69.1477 46.0765 69.817 46.2947 70.4131 46.0017C70.9804 45.7225 71.2814 45.0766 71.1015 44.5234L70.762 43.5969C70.5525 43.0251 69.8936 42.7836 69.2902 43.0574Z" fill="#3A556A"/>
<path d="M65.514 45.8297C64.9114 46.1041 64.5929 46.7889 64.8023 47.3603L65.1418 48.2868C65.3715 48.8489 66.0409 49.0671 66.637 48.7741C67.2043 48.4949 67.5053 47.849 67.3254 47.2957L66.9859 46.3693C66.7761 45.7975 66.1172 45.556 65.514 45.8297Z" fill="#3A556A"/>
<path d="M61.738 48.6018C61.1345 48.876 60.8156 49.5604 61.0254 50.1315L61.3656 51.0575C61.5753 51.6284 62.2345 51.8696 62.838 51.5963C63.4416 51.3229 63.7608 50.6386 63.5511 50.0677L63.2109 49.1417C63.002 48.5705 62.3431 48.3286 61.7393 48.6012C61.7388 48.6015 61.7385 48.6016 61.738 48.6018Z" fill="#3A556A"/>
<path d="M57.9619 51.3741C57.3584 51.6483 57.0395 52.3327 57.2493 52.9038L57.5894 53.8299C57.7991 54.4007 58.4584 54.6419 59.0619 54.3686C59.6654 54.0953 59.9847 53.4109 59.775 52.8401L59.4348 51.9141C59.2259 51.3429 58.567 51.101 57.9632 51.3736C57.9627 51.3738 57.9622 51.374 57.9619 51.3741Z" fill="#3A556A"/>
<path d="M54.1843 54.1468C53.5808 54.421 53.2619 55.1055 53.4717 55.6766L53.8118 56.6026C54.0223 57.1731 54.682 57.4132 55.285 57.1393C55.8869 56.8658 56.2055 56.1829 55.997 55.6129L55.6569 54.6869C55.4473 54.1157 54.7882 53.8739 54.1843 54.1468Z" fill="#3A556A"/>
<path d="M50.4074 56.9193C49.8039 57.1934 49.485 57.8779 49.6948 58.449L50.035 59.3751C50.2454 59.9456 50.9051 60.1857 51.5081 59.9118C52.11 59.6383 52.4286 58.9554 52.2201 58.3854L51.88 57.4593C51.6705 56.8881 51.0113 56.6463 50.4074 56.9193Z" fill="#3A556A"/>
<path d="M46.6303 59.6918C46.0268 59.9659 45.7079 60.6504 45.9177 61.2215L46.2579 62.1475C46.4683 62.718 47.128 62.9581 47.731 62.6842C48.333 62.4107 48.6515 61.7278 48.443 61.1578L48.1029 60.2318C47.8931 59.6607 47.234 59.4189 46.6303 59.6918Z" fill="#3A556A"/>
<path d="M42.8527 62.4649C42.2492 62.7383 41.93 63.4226 42.1397 63.9935L42.1401 63.9947L42.4803 64.9207C42.6907 65.4912 43.3504 65.7314 43.9534 65.4574C44.5554 65.184 44.8739 64.501 44.6655 63.931L44.3253 63.005C44.1158 62.4338 43.4567 62.192 42.8527 62.4649Z" fill="#3A556A"/>
<path d="M39.0766 65.2367C38.4731 65.51 38.1539 66.1943 38.3636 66.7652L38.364 66.7664L38.7042 67.6924C38.9146 68.2629 39.5743 68.5031 40.1773 68.2291C40.7793 67.9557 41.0979 67.2728 40.8894 66.7028L40.5492 65.7768C40.3394 65.2057 39.6803 64.9639 39.0766 65.2367Z" fill="#3A556A"/>
</svg>
