<svg width="618" height="160" viewBox="0 0 618 160" fill="none" xmlns="http://www.w3.org/2000/svg">
<path d="M562.193 109.558C560.76 109.651 559.323 110.03 557.97 110.669C554.453 112.281 552.142 115.038 552.807 116.827C553.473 118.616 556.863 118.758 560.38 117.147C561.745 116.54 563.004 115.683 564.079 114.628C564.582 114.116 564.763 113.402 564.541 112.809L563.676 110.485C563.457 109.89 562.875 109.526 562.193 109.558Z" fill="#D5D6DB"/>
<path d="M554.026 82.6443C552.988 82.7123 551.945 82.987 550.964 83.4506C548.415 84.6191 546.738 86.6183 547.22 87.9143C547.702 89.2104 550.162 89.3137 552.71 88.1454C553.7 87.7052 554.613 87.0832 555.393 86.3184C555.757 85.9469 555.888 85.4299 555.727 84.9996L555.101 83.3169C554.943 82.8856 554.521 82.6217 554.026 82.6443Z" fill="#D5D6DB"/>
<path d="M540.86 81.3919C540.644 81.3119 540.406 81.3221 540.191 81.42L534.52 83.9936C534.046 84.2079 533.812 84.7835 533.998 85.2797C534.041 85.3933 534.104 85.4968 534.184 85.584L546.387 98.9957L565.296 90.4139L540.86 81.3919Z" fill="#029BC5"/>
<path d="M596.697 88.6219L547.076 115.842L518.616 122.945L504.494 122.62L503.353 118.446L585.932 74.4C588.394 73.0787 591.036 72.6189 593.59 73.0675C594.708 73.2725 595.793 73.6641 596.82 74.2326C597.731 74.7261 598.576 75.3941 599.329 76.217C600.168 77.145 601.881 77.7539 602.309 79.2166C602.311 79.2151 603.036 85.5443 596.697 88.6219Z" fill="#E1E6E9"/>
<path d="M550.045 106.173L525.877 142.185C525.569 142.7 525.657 143.395 526.074 143.738C526.33 143.948 526.664 143.984 526.961 143.834L532.512 141.038C533.579 140.5 534.554 139.712 535.376 138.722L580.249 90.0463L550.045 106.173Z" fill="#029BC5"/>
<path d="M496.41 106.181C496.068 105.971 495.64 105.943 495.263 106.105L490.526 108.145C489.881 108.423 489.568 109.167 489.826 109.806C489.876 109.928 489.944 110.041 490.028 110.14L501.588 123.716L515.526 117.879L496.41 106.181Z" fill="#029BC5"/>
<path d="M507.142 123.797L499.379 133.541C499.266 133.68 499.263 133.888 499.374 134.005C499.453 134.089 499.574 134.106 499.681 134.047L504.029 131.824C504.063 131.806 504.095 131.782 504.122 131.753L515.203 119.681L507.142 123.797Z" fill="#029BC5"/>
<path d="M595.13 72.6925C593.998 72.287 592.799 72.0337 591.561 71.9378C590.11 73.5394 589.055 75.4388 588.501 77.4466C588.422 77.8555 588.684 78.2054 589.086 78.2281C589.211 78.235 589.34 78.2093 589.461 78.1531L597.889 74.1803C597.064 73.5439 596.135 73.043 595.13 72.6925Z" fill="#029BC5"/>
<path d="M578.119 80.6348L584.088 78.3404L588.006 86.8076L582.038 89.1019L578.119 80.6348Z" fill="#D5D6DB"/>
<path d="M575.205 84.516C574.49 84.7921 574.109 85.4783 574.355 86.0485L574.754 86.9723C575.024 87.5327 575.816 87.7477 576.523 87.4523C577.196 87.171 577.554 86.5245 577.343 85.9727L576.944 85.0489C576.698 84.4792 575.92 84.2405 575.205 84.516Z" fill="#3A556A"/>
<path d="M570.741 87.2885C570.025 87.5646 569.645 88.2507 569.891 88.8209L570.29 89.7448C570.56 90.3052 571.352 90.5201 572.059 90.2248C572.731 89.9434 573.09 89.297 572.879 88.7452L572.48 87.8214C572.234 87.2518 571.455 87.0131 570.741 87.2885Z" fill="#3A556A"/>
<path d="M566.274 90.0616C565.56 90.3383 565.18 91.0237 565.426 91.5934L565.825 92.5172C566.096 93.0776 566.887 93.2925 567.594 92.9972C568.267 92.7159 568.625 92.0694 568.414 91.5177L568.015 90.5939C567.769 90.0237 566.99 89.7854 566.274 90.0616Z" fill="#3A556A"/>
<path d="M561.81 92.834C561.096 93.1107 560.716 93.7961 560.962 94.3659L561.361 95.2897C561.631 95.8501 562.423 96.065 563.13 95.7697C563.802 95.4884 564.161 94.8419 563.95 94.2901L563.551 93.3663C563.305 92.7962 562.525 92.5579 561.81 92.834Z" fill="#3A556A"/>
<path d="M557.348 95.6058C556.632 95.8823 556.252 96.5674 556.499 97.1368L556.898 98.0602C557.145 98.6294 557.924 98.8674 558.64 98.5917C559.355 98.316 559.736 97.6311 559.489 97.0619L559.09 96.1385C558.844 95.569 558.065 95.3303 557.349 95.6052C557.349 95.6055 557.348 95.6056 557.348 95.6058Z" fill="#3A556A"/>
<path d="M552.883 98.3783C552.167 98.6548 551.788 99.3398 552.034 99.9093L552.434 100.833C552.68 101.402 553.46 101.64 554.175 101.364C554.891 101.089 555.271 100.404 555.025 99.8344L554.625 98.911C554.38 98.3414 553.6 98.1028 552.885 98.3777C552.884 98.3779 552.883 98.3782 552.883 98.3783Z" fill="#3A556A"/>
<path d="M548.418 101.151C547.703 101.428 547.323 102.113 547.569 102.682L547.969 103.606C548.216 104.175 548.997 104.411 549.712 104.135C550.425 103.859 550.805 103.176 550.56 102.607L550.16 101.684C549.914 101.114 549.134 100.876 548.418 101.151Z" fill="#3A556A"/>
<path d="M543.954 103.924C543.238 104.2 542.858 104.885 543.105 105.455L543.504 106.378C543.752 106.947 544.532 107.184 545.247 106.908C545.961 106.632 546.34 105.948 546.095 105.38L545.696 104.457C545.449 103.887 544.67 103.648 543.954 103.924Z" fill="#3A556A"/>
<path d="M539.49 106.696C538.774 106.973 538.394 107.658 538.641 108.227L539.04 109.151C539.288 109.719 540.068 109.956 540.783 109.68C541.496 109.404 541.876 108.721 541.631 108.152L541.231 107.229C540.985 106.66 540.205 106.421 539.49 106.696Z" fill="#3A556A"/>
<path d="M535.024 109.469C534.308 109.745 533.928 110.43 534.174 110.999L534.175 111L534.574 111.924C534.822 112.492 535.602 112.729 536.317 112.453C537.031 112.177 537.41 111.494 537.165 110.925L536.766 110.002C536.519 109.432 535.74 109.194 535.024 109.469Z" fill="#3A556A"/>
<path d="M530.56 112.241C529.845 112.517 529.465 113.202 529.711 113.771L529.712 113.772L530.111 114.695C530.358 115.264 531.139 115.501 531.854 115.225C532.567 114.949 532.947 114.266 532.702 113.697L532.302 112.774C532.056 112.204 531.276 111.966 530.56 112.241Z" fill="#3A556A"/>
<path d="M78.1929 62.5577C76.7601 62.6513 75.3226 63.0298 73.9698 63.6691C70.4532 65.2809 68.1417 68.0381 68.8072 69.8269C69.4727 71.6157 72.863 71.7583 76.3796 70.1465C77.7446 69.5399 79.0037 68.6828 80.0793 67.6282C80.5818 67.1157 80.7627 66.4022 80.5409 65.8086L79.6764 63.4848C79.4569 62.8899 78.8747 62.5264 78.1929 62.5577Z" fill="#D5D6DB"/>
<path d="M70.0264 35.6443C68.9875 35.7123 67.9451 35.9869 66.964 36.4506C64.4148 37.6191 62.738 39.6183 63.2201 40.9143C63.7022 42.2104 66.1615 42.3137 68.7104 41.1454C69.7002 40.7051 70.6131 40.0832 71.3932 39.3184C71.7571 38.9469 71.8881 38.4299 71.7274 37.9996L71.1014 36.3169C70.9426 35.8856 70.5208 35.6217 70.0264 35.6443Z" fill="#D5D6DB"/>
<path d="M56.8603 34.3919C56.6445 34.3119 56.4057 34.322 56.1907 34.42L50.5201 36.9936C50.0459 37.2079 49.8121 37.7835 49.9984 38.2797C50.041 38.3933 50.104 38.4968 50.1838 38.584L62.3874 51.9957L81.296 43.4139L56.8603 34.3919Z" fill="#029BC5"/>
<path d="M112.697 41.6219L63.076 68.8418L34.6156 75.9449L20.4944 75.6203L19.3533 71.4463L101.932 27.4C104.394 26.0788 107.036 25.6189 109.59 26.0675C110.708 26.2725 111.793 26.6641 112.82 27.2326C113.731 27.7261 114.576 28.3942 115.329 29.217C116.168 30.145 117.881 30.7539 118.309 32.2166C118.312 32.2151 119.036 38.5443 112.697 41.6219Z" fill="#E1E6E9"/>
<path d="M66.045 59.173L41.8768 95.1853C41.5688 95.6998 41.6572 96.3949 42.0739 96.7376C42.3297 96.948 42.6635 96.9843 42.961 96.834L48.5117 94.0379C49.5794 93.4998 50.5541 92.7116 51.3757 91.7221L96.249 43.0463L66.045 59.173Z" fill="#029BC5"/>
<path d="M12.4102 59.1807C12.0676 58.9708 11.6402 58.9428 11.263 59.1053L6.5263 61.1454C5.88092 61.423 5.56761 62.1666 5.82629 62.8064C5.87559 62.9281 5.94367 63.0407 6.02844 63.14L17.5882 76.7159L31.5261 70.8792L12.4102 59.1807Z" fill="#029BC5"/>
<path d="M23.1419 76.7973L15.3793 86.5408C15.2659 86.6804 15.2634 86.8884 15.3737 87.0051C15.4533 87.0893 15.5739 87.1057 15.6806 87.047L20.0295 84.8236C20.0633 84.8063 20.0949 84.7822 20.1222 84.7525L31.2026 72.6813L23.1419 76.7973Z" fill="#029BC5"/>
<path d="M111.129 25.6925C109.997 25.287 108.798 25.0337 107.561 24.9378C106.109 26.5394 105.054 28.4388 104.5 30.4466C104.422 30.8555 104.684 31.2054 105.086 31.2281C105.211 31.235 105.34 31.2093 105.461 31.1531L113.889 27.1803C113.064 26.5439 112.135 26.043 111.129 25.6925Z" fill="#029BC5"/>
<path d="M94.1194 33.6353L100.088 31.3409L104.006 39.808L98.0377 42.1024L94.1194 33.6353Z" fill="#D5D6DB"/>
<path d="M91.2051 37.516C90.49 37.7921 90.1095 38.4783 90.3557 39.0485L90.7545 39.9723C91.0247 40.5327 91.8165 40.7477 92.5233 40.4523C93.196 40.171 93.5546 39.5245 93.3435 38.9727L92.9446 38.0489C92.6986 37.4792 91.9201 37.2405 91.2051 37.516Z" fill="#3A556A"/>
<path d="M86.7408 40.2885C86.0257 40.5646 85.6451 41.2507 85.8913 41.8209L86.2902 42.7448C86.5603 43.3052 87.3522 43.5201 88.059 43.2248C88.7316 42.9434 89.0902 42.297 88.8791 41.7452L88.4802 40.8214C88.2339 40.2518 87.4555 40.0131 86.7408 40.2885Z" fill="#3A556A"/>
<path d="M82.2747 43.0616C81.5602 43.3383 81.1807 44.0237 81.4267 44.5934L81.8256 45.5172C82.0958 46.0776 82.8876 46.2925 83.5944 45.9972C84.267 45.7159 84.6256 45.0694 84.4145 44.5177L84.0156 43.5939C83.7694 43.0237 82.9901 42.7854 82.2747 43.0616Z" fill="#3A556A"/>
<path d="M77.8103 45.834C77.0958 46.1107 76.7164 46.7961 76.9624 47.3659L77.3612 48.2897C77.6314 48.8501 78.4232 49.065 79.13 48.7697C79.8027 48.4884 80.1613 47.8419 79.9501 47.2901L79.5513 46.3663C79.3048 45.7962 78.5254 45.5579 77.8103 45.834Z" fill="#3A556A"/>
<path d="M73.3476 48.6058C72.6321 48.8823 72.2521 49.5674 72.4986 50.1369L72.8983 51.0602C73.1447 51.6294 73.9245 51.8674 74.64 51.5917C75.3556 51.3161 75.7359 50.6311 75.4895 50.0619L75.0898 49.1385C74.8444 48.569 74.065 48.3303 73.3491 48.6052C73.3485 48.6055 73.3482 48.6056 73.3476 48.6058Z" fill="#3A556A"/>
<path d="M68.8833 51.3783C68.1677 51.6548 67.7878 52.3398 68.0343 52.9093L68.4339 53.8327C68.6803 54.4019 69.4601 54.6399 70.1756 54.3642C70.8912 54.0885 71.2715 53.4036 71.0252 52.8344L70.6255 51.911C70.38 51.3414 69.6006 51.1027 68.8848 51.3777C68.8842 51.3779 68.8836 51.3782 68.8833 51.3783Z" fill="#3A556A"/>
<path d="M64.4186 54.1512C63.7031 54.4278 63.3232 55.1128 63.5696 55.6823L63.9693 56.6056C64.2166 57.1745 64.9969 57.4114 65.7118 57.1351C66.4255 56.8593 66.805 56.1758 66.5601 55.6074L66.1604 54.6841C65.9143 54.1145 65.1346 53.8759 64.4186 54.1512Z" fill="#3A556A"/>
<path d="M59.954 56.9237C59.2385 57.2002 58.8586 57.8853 59.105 58.4548L59.5047 59.3781C59.7519 59.947 60.5323 60.1839 61.2472 59.9076C61.9609 59.6318 62.3404 58.9483 62.0955 58.3799L61.6958 57.4565C61.4497 56.8869 60.67 56.6483 59.954 56.9237Z" fill="#3A556A"/>
<path d="M55.4896 59.6962C54.7741 59.9727 54.3942 60.6577 54.6407 61.2272L55.0403 62.1506C55.2876 62.7194 56.0679 62.9563 56.7828 62.68C57.4965 62.4042 57.8761 61.7207 57.6311 61.1524L57.2315 60.229C56.985 59.6595 56.2054 59.421 55.4896 59.6962Z" fill="#3A556A"/>
<path d="M51.0238 62.4691C50.3083 62.7448 49.928 63.4297 50.1743 63.999L50.1749 64.0002L50.5745 64.9236C50.8218 65.4924 51.6021 65.7293 52.317 65.453C53.0307 65.1772 53.4102 64.4937 53.1653 63.9253L52.7657 63.0019C52.5195 62.4323 51.7399 62.1938 51.0238 62.4691Z" fill="#3A556A"/>
<path d="M46.5607 65.2411C45.8452 65.5168 45.4649 66.2017 45.7112 66.7709L45.7117 66.7721L46.1114 67.6955C46.3587 68.2644 47.139 68.5013 47.8539 68.225C48.5676 67.9492 48.9472 67.2657 48.7022 66.6973L48.3026 65.7739C48.0561 65.2045 47.2764 64.9659 46.5607 65.2411Z" fill="#3A556A"/>
</svg>
