<svg width="116" height="35" viewBox="0 0 116 35" fill="none" xmlns="http://www.w3.org/2000/svg">
<path d="M74.9999 29L84.4999 32L92.4999 24L102.5 31L113 29L108.5 14.5L92.4999 19.5L83.4999 14.5L73.9999 16L74.9999 29Z" fill="#F1A501"/>
<path d="M0.919922 24.0638V21.9018L7.03792 20.7978V23.7878C7.06859 25.4131 7.48259 26.6398 8.27992 27.4678C9.10792 28.2651 10.1966 28.6638 11.5459 28.6638C12.8646 28.6638 13.9073 28.2345 14.6739 27.3758C15.4713 26.5171 15.8699 25.3671 15.8699 23.9258V1.3858H22.2179V23.9258C22.2179 26.9311 21.2213 29.4765 19.2279 31.5618C17.2346 33.6471 14.6893 34.6898 11.5919 34.6898C8.37192 34.6898 5.78059 33.7238 3.81792 31.7918C1.88592 29.8291 0.919922 27.2531 0.919922 24.0638Z" fill="black"/>
<path d="M23.6766 27.8358C23.6766 25.9038 24.3053 24.3551 25.5626 23.1898C26.82 22.0245 28.4453 21.2885 30.4386 20.9818L36.0046 20.1538C37.1393 20.0005 37.7066 19.4638 37.7066 18.5438C37.7066 17.6851 37.3693 16.9798 36.6946 16.4278C36.0506 15.8758 35.1153 15.5998 33.8886 15.5998C32.6006 15.5998 31.5733 15.9525 30.8066 16.6578C30.0706 17.3631 29.6566 18.2371 29.5646 19.2798L24.1366 18.1298C24.3513 16.1671 25.3173 14.4345 27.0346 12.9318C28.752 11.4291 31.0213 10.6778 33.8426 10.6778C37.216 10.6778 39.7 11.4905 41.2946 13.1158C42.8893 14.7105 43.6866 16.7651 43.6866 19.2798V30.4118C43.6866 31.7611 43.7786 32.9571 43.9626 33.9998H38.3506C38.1973 33.3251 38.1206 32.4205 38.1206 31.2858C36.6793 33.5245 34.456 34.6438 31.4506 34.6438C29.12 34.6438 27.234 33.9691 25.7926 32.6198C24.382 31.2705 23.6766 29.6758 23.6766 27.8358ZM32.7386 30.0898C34.18 30.0898 35.3606 29.6911 36.2806 28.8938C37.2313 28.0658 37.7066 26.7165 37.7066 24.8458V23.8338L32.6006 24.6158C30.73 24.8918 29.7946 25.8425 29.7946 27.4678C29.7946 28.2038 30.0553 28.8325 30.5766 29.3538C31.098 29.8445 31.8186 30.0898 32.7386 30.0898Z" fill="black"/>
<path d="M67.6577 0.695801V29.9058C67.6577 31.4085 67.719 32.7731 67.8417 33.9998H61.9997C61.8463 33.2331 61.7697 32.3591 61.7697 31.3778C61.2483 32.3285 60.4203 33.0951 59.2857 33.6778C58.1817 34.2605 56.8937 34.5518 55.4217 34.5518C52.2017 34.5518 49.549 33.4325 47.4637 31.1938C45.409 28.9245 44.3817 26.0725 44.3817 22.6378C44.3817 19.2951 45.3937 16.4891 47.4177 14.2198C49.4723 11.9505 52.079 10.8158 55.2377 10.8158C58.4883 10.8158 60.6197 11.7511 61.6317 13.6218V0.695801H67.6577ZM50.5457 22.6378C50.5457 24.6311 51.067 26.2105 52.1097 27.3758C53.1523 28.5105 54.5017 29.0778 56.1577 29.0778C57.783 29.0778 59.117 28.4951 60.1597 27.3298C61.2023 26.1645 61.7237 24.5851 61.7237 22.5918C61.7237 20.6291 61.2023 19.0958 60.1597 17.9918C59.117 16.8571 57.783 16.2898 56.1577 16.2898C54.5323 16.2898 53.183 16.8571 52.1097 17.9918C51.067 19.1265 50.5457 20.6751 50.5457 22.6378Z" fill="black"/>
<path d="M76.6866 27.4218C77.8213 28.5565 79.1859 29.1238 80.7806 29.1238C82.3753 29.1238 83.7246 28.5565 84.8286 27.4218C85.9633 26.2871 86.5306 24.7078 86.5306 22.6838C86.5306 20.6598 85.9633 19.0805 84.8286 17.9458C83.7246 16.8111 82.3753 16.2438 80.7806 16.2438C79.1859 16.2438 77.8213 16.8111 76.6866 17.9458C75.5826 19.0805 75.0306 20.6598 75.0306 22.6838C75.0306 24.7078 75.5826 26.2871 76.6866 27.4218ZM72.2706 14.0818C74.5399 11.8125 77.3766 10.6778 80.7806 10.6778C84.1846 10.6778 87.0059 11.8125 89.2446 14.0818C91.5139 16.3511 92.6486 19.2185 92.6486 22.6838C92.6486 26.1491 91.5139 29.0165 89.2446 31.2858C87.0059 33.5551 84.1846 34.6898 80.7806 34.6898C77.3766 34.6898 74.5399 33.5551 72.2706 31.2858C70.0319 29.0165 68.9126 26.1491 68.9126 22.6838C68.9126 19.2185 70.0319 16.3511 72.2706 14.0818Z" fill="black"/>
<path d="M99.8699 27.4218C101.005 28.5565 102.369 29.1238 103.964 29.1238C105.559 29.1238 106.908 28.5565 108.012 27.4218C109.147 26.2871 109.714 24.7078 109.714 22.6838C109.714 20.6598 109.147 19.0805 108.012 17.9458C106.908 16.8111 105.559 16.2438 103.964 16.2438C102.369 16.2438 101.005 16.8111 99.8699 17.9458C98.7659 19.0805 98.2139 20.6598 98.2139 22.6838C98.2139 24.7078 98.7659 26.2871 99.8699 27.4218ZM95.4539 14.0818C97.7232 11.8125 100.56 10.6778 103.964 10.6778C107.368 10.6778 110.189 11.8125 112.428 14.0818C114.697 16.3511 115.832 19.2185 115.832 22.6838C115.832 26.1491 114.697 29.0165 112.428 31.2858C110.189 33.5551 107.368 34.6898 103.964 34.6898C100.56 34.6898 97.7232 33.5551 95.4539 31.2858C93.2152 29.0165 92.0959 26.1491 92.0959 22.6838C92.0959 19.2185 93.2152 16.3511 95.4539 14.0818Z" fill="black"/>
</svg>
