<svg width="98" height="35" viewBox="0 0 98 35" fill="none" xmlns="http://www.w3.org/2000/svg">
<path d="M62.9981 29L71.0351 32L77.8031 24L86.2631 31L95.1462 29L91.3391 14.5L77.8031 19.5L70.1891 14.5L62.1521 16L62.9981 29Z" fill="#F1A501"/>
<path d="M0.326538 24.064V21.902L5.50237 20.798V23.788C5.52832 25.4134 5.87856 26.64 6.55311 27.468C7.2536 28.2654 8.17461 28.664 9.31615 28.664C10.4317 28.664 11.3138 28.2347 11.9624 27.376C12.637 26.5174 12.9743 25.3674 12.9743 23.926V1.38604H18.3447V23.926C18.3447 26.9314 17.5015 29.4767 15.8151 31.562C14.1288 33.6474 11.9754 34.69 9.35506 34.69C6.63094 34.69 4.43867 33.724 2.77825 31.792C1.14378 29.8294 0.326538 27.2534 0.326538 24.064Z" fill="black"/>
<path d="M19.5787 27.836C19.5787 25.904 20.1106 24.3554 21.1743 23.19C22.238 22.0247 23.613 21.2887 25.2994 20.982L30.0082 20.154C30.9682 20.0007 31.4481 19.464 31.4481 18.544C31.4481 17.6854 31.1628 16.98 30.592 16.428C30.0472 15.876 29.2559 15.6 28.2181 15.6C27.1285 15.6 26.2593 15.9527 25.6107 16.658C24.9881 17.3634 24.6378 18.2374 24.56 19.28L19.9679 18.13C20.1495 16.1674 20.9667 14.4347 22.4196 12.932C23.8725 11.4294 25.7923 10.678 28.1792 10.678C31.033 10.678 33.1345 11.4907 34.4836 13.116C35.8327 14.7107 36.5072 16.7654 36.5072 19.28V30.412C36.5072 31.7614 36.5851 32.9574 36.7407 34H31.993C31.8632 33.3254 31.7984 32.4207 31.7984 31.286C30.579 33.5247 28.6981 34.644 26.1556 34.644C24.1838 34.644 22.5882 33.9694 21.3689 32.62C20.1755 31.2707 19.5787 29.676 19.5787 27.836ZM27.2452 30.09C28.4646 30.09 29.4634 29.6914 30.2417 28.894C31.046 28.066 31.4481 26.7167 31.4481 24.846V23.834L27.1285 24.616C25.5459 24.892 24.7546 25.8427 24.7546 27.468C24.7546 28.204 24.9751 28.8327 25.4161 29.354C25.8572 29.8447 26.4669 30.09 27.2452 30.09Z" fill="black"/>
<path d="M56.7867 0.696045V29.906C56.7867 31.4087 56.8386 32.7734 56.9424 34H52.0001C51.8704 33.2334 51.8055 32.3594 51.8055 31.378C51.3644 32.3287 50.664 33.0954 49.704 33.678C48.77 34.2607 47.6804 34.552 46.4351 34.552C43.711 34.552 41.4668 33.4327 39.7026 31.194C37.9643 28.9247 37.0952 26.0727 37.0952 22.638C37.0952 19.2954 37.9514 16.4894 39.6637 14.22C41.4019 11.9507 43.6072 10.816 46.2794 10.816C49.0295 10.816 50.8326 11.7514 51.6887 13.622V0.696045H56.7867ZM42.31 22.638C42.31 24.6314 42.751 26.2107 43.6331 27.376C44.5152 28.5107 45.6568 29.078 47.0577 29.078C48.4328 29.078 49.5613 28.4954 50.4434 27.33C51.3255 26.1647 51.7666 24.5854 51.7666 22.592C51.7666 20.6294 51.3255 19.096 50.4434 17.992C49.5613 16.8574 48.4328 16.29 47.0577 16.29C45.6827 16.29 44.5412 16.8574 43.6331 17.992C42.751 19.1267 42.31 20.6754 42.31 22.638Z" fill="black"/>
<path d="M64.4252 27.422C65.3852 28.5567 66.5397 29.124 67.8888 29.124C69.2379 29.124 70.3794 28.5567 71.3134 27.422C72.2733 26.2874 72.7533 24.708 72.7533 22.684C72.7533 20.66 72.2733 19.0807 71.3134 17.946C70.3794 16.8114 69.2379 16.244 67.8888 16.244C66.5397 16.244 65.3852 16.8114 64.4252 17.946C63.4913 19.0807 63.0243 20.66 63.0243 22.684C63.0243 24.708 63.4913 26.2874 64.4252 27.422ZM60.6893 14.082C62.6092 11.8127 65.009 10.678 67.8888 10.678C70.7686 10.678 73.1554 11.8127 75.0493 14.082C76.9692 16.3514 77.9291 19.2187 77.9291 22.684C77.9291 26.1494 76.9692 29.0167 75.0493 31.286C73.1554 33.5554 70.7686 34.69 67.8888 34.69C65.009 34.69 62.6092 33.5554 60.6893 31.286C58.7954 29.0167 57.8484 26.1494 57.8484 22.684C57.8484 19.2187 58.7954 16.3514 60.6893 14.082Z" fill="black"/>
<path d="M84.0383 27.422C84.9983 28.5567 86.1528 29.124 87.5019 29.124C88.851 29.124 89.9925 28.5567 90.9265 27.422C91.8864 26.2874 92.3664 24.708 92.3664 22.684C92.3664 20.66 91.8864 19.0807 90.9265 17.946C89.9925 16.8114 88.851 16.244 87.5019 16.244C86.1528 16.244 84.9983 16.8114 84.0383 17.946C83.1043 19.0807 82.6374 20.66 82.6374 22.684C82.6374 24.708 83.1043 26.2874 84.0383 27.422ZM80.3024 14.082C82.2222 11.8127 84.6221 10.678 87.5019 10.678C90.3816 10.678 92.7685 11.8127 94.6624 14.082C96.5823 16.3514 97.5422 19.2187 97.5422 22.684C97.5422 26.1494 96.5823 29.0167 94.6624 31.286C92.7685 33.5554 90.3816 34.69 87.5019 34.69C84.6221 34.69 82.2222 33.5554 80.3024 31.286C78.4085 29.0167 77.4615 26.1494 77.4615 22.684C77.4615 19.2187 78.4085 16.3514 80.3024 14.082Z" fill="black"/>
</svg>
